<svg width="264" height="60" viewBox="0 0 264 60" fill="none" xmlns="http://www.w3.org/2000/svg">
<g clip-path="url(#clip0_7_400)">
<path d="M55.4647 13.9456C59.3031 13.9456 62.4147 10.8238 62.4147 6.97279C62.4147 3.12182 59.3031 0 55.4647 0C51.6263 0 48.5146 3.12182 48.5146 6.97279C48.5146 10.8238 51.6263 13.9456 55.4647 13.9456Z" fill="#1E83FF"/>
<path d="M30.8514 18.5715H44.1751V60.0001H18.9855V46.1566H30.8514V18.5715Z" fill="#232C51"/>
<path d="M13.8323 46.3945H0V60H13.8323V46.3945Z" fill="#30CDFF"/>
<path d="M245.014 18.5715H230.809L226.402 29.762L221.994 18.5715H207.789L223.825 56.2586C224.774 58.5375 227.012 60.0001 229.453 60.0001H244.777V46.1566H233.318L245.014 18.5715Z" fill="#232C51"/>
<path d="M249.939 60.0029L263.771 60.0029L263.771 46.3975L249.939 46.3975L249.939 60.0029Z" fill="#6A24FF"/>
<path d="M81.2984 22.4489V18.5713H67.7035V59.9999H81.6375V37.5509C81.6375 33.8774 84.587 30.9182 88.2485 30.9182C91.91 30.9182 94.8595 33.8774 94.8595 37.5509V59.9999H108.827V37.6529C108.827 34.0135 111.743 31.0883 115.371 31.0883C118.998 31.0883 121.914 34.0135 121.914 37.6529V59.9999H135.678V35.5101C135.678 32.0407 134.695 28.6393 132.763 25.7822C130.389 22.3468 126.219 18.8434 118.998 18.6733C118.998 18.6733 109.878 18.1631 104.386 24.5577C104.386 24.5577 99.7415 18.6733 91.8422 18.5033C91.7743 18.5033 86.1126 18.1291 81.2984 22.4489Z" fill="#232C51"/>
<path d="M153.782 22.4489V18.5713H140.187V59.9999H154.121V37.5509C154.121 33.8774 157.071 30.9182 160.732 30.9182C164.394 30.9182 167.343 33.8774 167.343 37.5509V59.9999H181.277V37.6529C181.277 34.0135 184.193 31.0883 187.821 31.0883C191.448 31.0883 194.364 34.0135 194.364 37.6529V59.9999H208.162V35.5101C208.162 32.0407 207.179 28.6393 205.247 25.7822C202.873 22.3468 198.703 18.8434 191.482 18.6733C191.482 18.6733 182.362 18.1631 176.87 24.5577C176.87 24.5577 172.225 18.6733 164.326 18.5033C164.292 18.5033 158.63 18.1291 153.782 22.4489Z" fill="#232C51"/>
<path d="M48.8536 18.5714V60H62.7876V27.8231C62.7876 22.653 58.6854 18.5034 53.6339 18.5714C50.9217 18.6054 48.8536 18.5714 48.8536 18.5714Z" fill="#232C51"/>
</g>
<defs>
<clipPath id="clip0_7_400">
<rect width="263.762" height="60" fill="white"/>
</clipPath>
</defs>
</svg>
